#!OML:ASF X:\für Bonn\!DataBase\2005_08_11_Bastian_Final\c3d\Bastian.ASF
:FULLY-SPECIFIED
:DEGREES
78
root 23.5106 16.8178 -5.04745 532.395 -103.34 -157.809
lowerback 65.5608 -4.94459 15.6154
upperback 19.0967 0.0622795 1.68077
thorax 1.25264 -0.245385 -4.49325
lowerneck -5.1515 -7.51581 -2.06312
upperneck -18.9246 -10.0801 5.82225
head -4.44729 -5.5681 2.37124
rclavicle 9.54166e-014 -9.54166e-015
rhumerus 52.7686 -6.25484 -48.5194
rradius 17.4094
rwrist -3.57084
rhand -28.5758 -4.96119
rfingers 7.12502
rthumb -1.94206 -34.9321
lclavicle 9.54166e-014 -9.54166e-015
lhumerus -8.34062 -30.2541 84.1412
lradius 46.5971
lwrist 30.8185
lhand -12.5866 -11.3625
lfingers 7.12502
lthumb 13.4916 18.1805
rfemur -51.9007 -11.0593 20.89
rtibia 52.1763
rfoot -7.19378 2.88804
rtoes 9.87988
lfemur -45.1117 3.24422 -28.4628
ltibia 36.0814
lfoot 1.20761 -2.81681
ltoes -8.08452
79
root 23.4897 16.7938 -5.03891 531.852 -103.447 -156.578
lowerback 65.9382 -5.13606 15.5688
upperback 19.017 -0.097327 1.49777
thorax 1.15811 -0.292856 -4.60033
lowerneck -5.49637 -7.46754 -2.18838
upperneck -18.8871 -10.0014 5.91159
head -4.37161 -5.52776 2.39954
rclavicle -2.8625e-014 1.11319e-014
rhumerus 53.412 -6.67331 -48.39
rradius 17.282
rwrist -3.48542
rhand -28.7653 -4.95707
rfingers 7.12502
rthumb -2.12499 -34.9262
lclavicle -2.8625e-014 1.11319e-014
lhumerus -8.42339 -30.0625 83.9788
lradius 47.0809
lwrist 30.8957
lhand -12.6252 -11.5467
lfingers 7.12502
lthumb 13.4545 17.9987
rfemur -52.9037 -11.2222 20.7125
rtibia 52.7304
rfoot -7.38179 2.98324
rtoes 9.97647
lfemur -46.026 3.19904 -28.9254
ltibia 36.5523
lfoot 1.19457 -2.92646
ltoes -8.10781
80
root 23.4675 16.7701 -5.03054 531.503 -103.556 -155.531
lowerback 66.3128 -5.33474 15.5374
upperback 18.8909 -0.242596 1.30396
thorax 1.013 -0.333753 -4.72984
lowerneck -6.00325 -7.41327 -2.20808
upperneck -18.2348 -9.96729 5.76507
head -4.61171 -5.47416 2.55908
rclavicle 9.54166e-015 -4.77083e-015
rhumerus 53.9796 -7.08025 -48.3451
rradius 17.1633
rwrist -3.40051
rhand -28.9316 -4.88873
rfingers 7.12502
rthumb -2.28563 -34.8562
lclavicle 9.54166e-015 -4.77083e-015
lhumerus -8.60411 -29.8959 83.8422
lradius 47.5407
lwrist 30.943
lhand -12.7672 -11.7573
lfingers 7.12502
lthumb 13.3176 17.7972
rfemur -53.9152 -11.3699 20.5821
rtibia 53.281
rfoot -7.59238 3.04625
rtoes 9.85806
lfemur -46.9544 3.06644 -29.3049
ltibia 37.0384
lfoot 1.13905 -2.9575
ltoes -8.21449
81
root 23.4446 16.7452 -5.02215 531.389 -103.658 -154.733
lowerback 66.7565 -5.56501 15.516
upperback 18.6373 -0.372489 1.08821
thorax 0.726509 -0.374451 -4.88706
lowerneck -5.94431 -7.33187 -2.28693
upperneck -18.2311 -9.8356 5.85993
head -4.61771 -5.40553 2.60637
rclavicle 1.27222e-014 -2.38542e-015
rhumerus 54.3913 -7.33982 -48.3537
rradius 17.0803
rwrist -3.27214
rhand -29.1359 -4.88869
rfingers 7.12502
rthumb -2.48295 -34.854
lclavicle 1.27222e-014 -2.38542e-015
lhumerus -8.99245 -29.718 83.7546
lradius 48.0377
lwrist 31.0345
lhand -12.9018 -11.9177
lfingers 7.12502
lthumb 13.1878 17.6452
rfemur -54.906 -11.5078 20.5113
rtibia 53.8196
rfoot -7.82327 3.09722
rtoes 9.76329
lfemur -47.8809 2.92401 -29.6208
ltibia 37.5458
lfoot 1.069 -3.00181
ltoes -8.22106
82
root 23.4218 16.7198 -5.01426 531.415 -103.743 -154.069
lowerback 67.1939 -5.78695 15.5043
upperback 18.3689 -0.486299 0.863056
thorax 0.425414 -0.406742 -5.0651
lowerneck -5.9074 -7.24802 -2.27717
upperneck -18.1549 -9.70869 5.89404
head -4.5999 -5.3398 2.61302
rclavicle 0 -7.95139e-016
rhumerus 54.7778 -7.60647 -48.4418
rradius 16.9664
rwrist -3.11294
rhand -29.3602 -4.80411
rfingers 7.12502
rthumb -2.6996 -34.7668
lclavicle 0 -7.95139e-016
lhumerus -9.31525 -29.5491 83.6665
lradius 48.4209
lwrist 31.1065
lhand -13.0426 -12.1249
lfingers 7.12502
lthumb 13.0521 17.4467
rfemur -55.9011 -11.6288 20.4845
rtibia 54.3533
rfoot -8.01868 3.14237
rtoes 9.69394
lfemur -48.8274 2.74831 -29.8743
ltibia 38.0714
lfoot 0.948888 -3.00992
ltoes -8.51313
83
root 23.3983 16.6949 -5.00592 531.471 -103.861 -153.461
lowerback 67.6078 -6.03856 15.521
upperback 18.1094 -0.618659 0.637953
thorax 0.136213 -0.444289 -5.24827
lowerneck -5.82491 -7.16738 -2.2909
upperneck -18.1068 -9.58015 5.96785
head -4.59816 -5.27397 2.64119
rclavicle -8.26944e-014 1.35174e-014
rhumerus 55.1552 -7.9107 -48.6244
rradius 16.8927
rwrist -2.88843
rhand -29.5569 -4.77788
rfingers 7.12502
rthumb -2.8895 -34.738
lclavicle -8.26944e-014 1.35174e-014
lhumerus -9.61221 -29.442 83.5358
lradius 48.8343
lwrist 31.2864
lhand -13.1685 -12.3222
lfingers 7.12502
lthumb 12.9308 17.2572
rfemur -56.8625 -11.7907 20.4621
rtibia 54.8747
rfoot -8.23331 3.19232
rtoes 9.56205
lfemur -49.7381 2.49636 -30.0827
ltibia 38.6103
lfoot 0.823903 -2.94428
ltoes -8.41886
